<svg xmlns="http://www.w3.org/2000/svg" viewBox="0 0 100 100" enable-background="new 0 0 100 100"><path fill="#C2AA8D" d="M74.4 54.2c4.6-1.4 9.3-3.2 13.8-5.7 7.3-4.2 11 .2 8.3 6.8-2.3 6.3-14.5 18-25.2 20.7-4.1-2.9-12.1-4.8-21.3-4.9-9.2 0-17.3 2-21.3 4.9-10.7-2.7-22.9-14.4-25.2-20.6-2.7-6.6 1-11 8.3-6.8 4.5 2.5 9.3 4.3 13.8 5.7 9.8 2.9 18.7 3.7 23.4 3.7h2.6c4.6-.1 13.3-.9 22.8-3.8z"/><path fill="#C2AA8D" d="M61.3 24.7c3.8 1.9 10 19.8 12.4 27.1-9.2 2.7-17.6 3.4-22.1 3.4h-2.6c-4.6 0-13.1-.7-22.6-3.4 2.4-7.3 8.6-25.2 12.4-27.1 4.4-2.2 8.1 1.4 11.1 1.8h-1.2.7.7c3.1-.4 6.8-4 11.2-1.8zm-1.5 13.9c0-.8-.6-1.4-1.4-1.4-.7 0-1.3.5-1.4 1.2l-4.4-.6-2-3.9c.5-.2.9-.7.9-1.3 0-.8-.6-1.4-1.4-1.4s-1.4.6-1.4 1.4c0 .6.4 1.1.9 1.3l-1.9 3.9-4.4.6c-.1-.7-.7-1.2-1.4-1.2-.8 0-1.4.6-1.4 1.4 0 .8.6 1.4 1.4 1.4.5 0 .9-.2 1.2-.6l3.1 3.1-.8 4.6c-.4-.1-.6-.1-.8-.1-.8 0-1.4.6-1.4 1.4s.6 1.4 1.4 1.4c.8 0 1.4-.6 1.4-1.4 0-.3-.1-.6-.2-.8l4.2-2.2 4.2 2.2c-.2.2-.3.5-.3.8 0 .8.6 1.4 1.4 1.4.8 0 1.4-.6 1.4-1.4s-.5-1.4-1.3-1.4c-.2 0-.4 0-.6.1l-.8-4.6 3.1-3.1c.3.4.7.6 1.2.6.8 0 1.5-.6 1.5-1.4z"/></svg>