<svg xmlns="http://www.w3.org/2000/svg" viewBox="0 0 224.9 256" enable-background="new 0 0 224.9 256"><style type="text/css">.st0{fill:#87724F;}</style><path class="st0" d="M211.4 175.8c-1.7 0-3.3.6-4.7 1.4l-29.2-49.2 29.3-49.3c1.4.8 2.9 1.4 4.7 1.4 5.1 0 9.3-4.2 9.3-9.3 0-5.1-4.2-9.3-9.3-9.3-5.1 0-9.3 4.2-9.3 9.3v.1l-57.2.8-28-50c2.8-1.6 4.8-4.5 4.8-8 0-5.1-4.2-9.3-9.3-9.3-5.1 0-9.3 4.2-9.3 9.3 0 3.5 2 6.4 4.8 8l-28 50-57.2-.7v-.1c0-5.1-4.2-9.3-9.3-9.3-5.1 0-9.3 4.2-9.3 9.3 0 5.1 4.2 9.3 9.3 9.3 1.7 0 3.3-.6 4.7-1.4l29.2 49.2-29.3 49.3c-1.4-.8-2.9-1.4-4.7-1.4-5.1 0-9.3 4.2-9.3 9.3 0 5.1 4.2 9.3 9.3 9.3 5.1 0 9.3-4.2 9.3-9.3v-.1l57.2-.7 28 50c-2.8 1.6-4.8 4.5-4.8 8 0 5.1 4.2 9.3 9.3 9.3 5.1 0 9.3-4.2 9.3-9.3 0-3.5-2-6.4-4.8-8l28-50 57.2.7v.1c0 5.1 4.2 9.3 9.3 9.3 5.1 0 9.3-4.2 9.3-9.3 0-5.2-4.2-9.4-9.3-9.4z" id="Your_Icon"/></svg>